<mxfile host="app.diagrams.net" modified="2024-05-23T08:43:20.369Z" agent="Mozilla/5.0 (Macintosh; Intel Mac OS X 10.15; rv:126.0) Gecko/20100101 Firefox/126.0" version="24.4.6" etag="S1ZUGoS4Z9mAdFaYfBn0" type="github">
  <diagram name="第 1 页" id="BvGwx7lwnPIyoJYfpfmC">
    <mxGraphModel>
      <root>
        <mxCell id="0" />
        <mxCell id="1" parent="0" />
      </root>
    </mxGraphModel>
  </diagram>
</mxfile>
